<svg width="26" height="28" viewBox="0 0 26 28" fill="none" xmlns="http://www.w3.org/2000/svg">
<g filter="url(#filter0_d_1358_332)">
<circle cx="19.5" cy="10.5" r="2" stroke="#FFAF53"/>
<circle cx="19.5" cy="10.5" r="0.5" fill="#FFAF53"/>
<circle cx="9.5" cy="13.5" r="1.5" fill="#FFAF53"/>
<path d="M9.5 13.5C13.0935 13.5 14.2658 8.65754 14.4669 5.49813C14.502 4.94696 14.0523 4.5 13.5 4.5H12.5" stroke="#FFAF53" stroke-linecap="round"/>
<path d="M9.5 13.5C5.9065 13.5 4.73423 8.65754 4.53308 5.49813C4.49799 4.94696 4.94772 4.5 5.5 4.5H6.5" stroke="#FFAF53" stroke-linecap="round"/>
<path d="M19.5 12.5V14.5C19.5 17.2614 17.2614 19.5 14.5 19.5V19.5C11.7386 19.5 9.5 17.2614 9.5 14.5V13.5" stroke="#FFAF53" stroke-linecap="round"/>
</g>
<defs>
<filter id="filter0_d_1358_332" x="-3" y="0" width="32" height="32" filterUnits="userSpaceOnUse" color-interpolation-filters="sRGB">
<feFlood flood-opacity="0" result="BackgroundImageFix"/>
<feColorMatrix in="SourceAlpha" type="matrix" values="0 0 0 0 0 0 0 0 0 0 0 0 0 0 0 0 0 0 127 0" result="hardAlpha"/>
<feOffset dy="4"/>
<feGaussianBlur stdDeviation="2"/>
<feComposite in2="hardAlpha" operator="out"/>
<feColorMatrix type="matrix" values="0 0 0 0 0 0 0 0 0 0 0 0 0 0 0 0 0 0 0.25 0"/>
<feBlend mode="normal" in2="BackgroundImageFix" result="effect1_dropShadow_1358_332"/>
<feBlend mode="normal" in="SourceGraphic" in2="effect1_dropShadow_1358_332" result="shape"/>
</filter>
</defs>
</svg>
